<?xml version="1.0" standalone="no"?><!DOCTYPE svg PUBLIC "-//W3C//DTD SVG 1.1//EN" "http://www.w3.org/Graphics/SVG/1.1/DTD/svg11.dtd"><svg t="1728181770112" class="icon" viewBox="0 0 2048 1024" version="1.1" xmlns="http://www.w3.org/2000/svg" p-id="14659" xmlns:xlink="http://www.w3.org/1999/xlink" width="400" height="200"><path d="M409.6 542.72l30.72-153.6h40.96l-51.2 215.04h-30.72l-40.96-153.6L307.2 604.16h-30.72l-51.2-225.28h40.96l30.72 153.6 40.96-153.6h30.72L409.6 542.72zM634.88 501.76h-81.92v71.68h102.4v30.72H512V378.88h133.12V409.6h-102.4v61.44h81.92v30.72zM716.8 573.44h102.4v30.72H686.08V378.88H716.8v194.56zM1003.52 532.48c0 20.48-10.24 40.96-20.48 51.2-10.24 10.24-30.72 20.48-61.44 20.48-20.48 0-40.96-10.24-61.44-30.72-10.24-10.24-20.48-30.72-20.48-61.44v-40.96c0-30.72 10.24-51.2 20.48-61.44 20.48-20.48 40.96-30.72 61.44-30.72 30.72 0 40.96 10.24 61.44 20.48s20.48 30.72 20.48 51.2h-30.72c0-10.24 0-30.72-10.24-30.72C952.32 409.6 942.08 409.6 921.6 409.6c-10.24 0-20.48 10.24-30.72 20.48-10.24 10.24-10.24 20.48-10.24 40.96V512c0 20.48 0 30.72 10.24 40.96 10.24 20.48 20.48 20.48 30.72 20.48 10.24 0 30.72 0 30.72-10.24 10.24-10.24 10.24-20.48 10.24-30.72h40.96zM1218.56 512c0 30.72-10.24 51.2-20.48 61.44-20.48 20.48-40.96 30.72-61.44 30.72-30.72 0-51.2-10.24-61.44-30.72-20.48-20.48-20.48-40.96-20.48-61.44v-40.96c0-30.72 10.24-51.2 20.48-61.44 20.48-20.48 40.96-30.72 61.44-30.72 30.72 0 51.2 10.24 61.44 30.72s20.48 40.96 20.48 61.44V512z m-40.96-40.96c0-20.48 0-30.72-10.24-40.96-10.24-10.24-30.72-20.48-40.96-20.48-20.48 0-30.72 10.24-40.96 20.48-10.24 10.24-10.24 30.72-10.24 40.96V512c0 20.48 0 30.72 10.24 40.96 10.24 10.24 20.48 20.48 40.96 20.48s30.72-10.24 40.96-20.48c10.24-10.24 10.24-30.72 10.24-40.96v-40.96zM1361.92 552.96l61.44-163.84h51.2v215.04H1433.6V440.32l-61.44 153.6h-20.48l-61.44-163.84v163.84h-40.96V378.88h51.2l61.44 174.08zM1638.4 501.76h-81.92v71.68h102.4v30.72h-133.12V378.88h133.12V409.6h-102.4v61.44h81.92v30.72zM1802.24 532.48h-40.96V378.88h40.96v153.6z m0 71.68h-40.96v-40.96h40.96v40.96z" p-id="14660"></path></svg>